<svg xmlns="http://www.w3.org/2000/svg" xmlns:xlink="http://www.w3.org/1999/xlink" width="66" height="53.014" viewBox="0 0 66 53.014">
  <defs>
    <linearGradient id="linear-gradient" y1="0.503" x2="1" y2="0.503" gradientUnits="objectBoundingBox">
      <stop offset="0.08" stop-color="#fff"/>
      <stop offset="0.08" stop-color="#f6f6f6"/>
      <stop offset="0.09" stop-color="#c8c8c8"/>
      <stop offset="0.1" stop-color="#9d9d9d"/>
      <stop offset="0.11" stop-color="#777"/>
      <stop offset="0.12" stop-color="#575757"/>
      <stop offset="0.13" stop-color="#3b3b3b"/>
      <stop offset="0.14" stop-color="#252525"/>
      <stop offset="0.15" stop-color="#141414"/>
      <stop offset="0.17" stop-color="#090909"/>
      <stop offset="0.2" stop-color="#020202"/>
      <stop offset="0.27"/>
    </linearGradient>
  </defs>
  <g id="Cam_Cloud" data-name="Cam Cloud" transform="translate(9 -0.986)">
    <g id="Layer_2" data-name="Layer 2" transform="translate(0 1.172)">
      <g id="Camera">
        <path id="Path_88" data-name="Path 88" d="M21.89,19.38H4.71c-2,0-3.71,1.35-3.71,3v8.07c0,1.65,1.67,3,3.71,3H21.89c2,0,3.71-1.35,3.71-3V22.38C25.6,20.73,23.93,19.38,21.89,19.38Z" fill="none" stroke="#232745" stroke-miterlimit="10" stroke-width="2"/>
        <path id="Path_89" data-name="Path 89" d="M31.68,21.68l-3.82,2.07a.22.22,0,0,0-.12.2v4.92a.22.22,0,0,0,.12.21l3.82,2.06a.23.23,0,0,0,.35-.2v-9a.24.24,0,0,0-.35-.26Z" fill="none" stroke="#232745" stroke-miterlimit="10" stroke-width="2"/>
        <path id="Path_90" data-name="Path 90" d="M24.7,13.1H8.55v4h1.88V14.89H24.7a.9.9,0,0,0,.9-.9h0a.89.89,0,0,0-.9-.89Z" stroke="#232745" stroke-miterlimit="10" stroke-width="2" fill="url(#linear-gradient)"/>
        <path id="Path_91" data-name="Path 91" d="M34.79,32.13h4.48A6.72,6.72,0,0,0,41.43,19,10.93,10.93,0,0,0,25,7.84,11,11,0,0,0,3.75,12" fill="none" stroke="#232745" stroke-miterlimit="10" stroke-width="2"/>
      </g>
    </g>
    <text id="Cam_Cloud-2" data-name="Cam Cloud" transform="translate(24 50)" fill="#232845" font-size="14" font-family="SegoeUI, Segoe UI" letter-spacing="-0.024em"><tspan x="-32.713" y="0">Cam Cloud</tspan></text>
  </g>
</svg>
