<svg xmlns="http://www.w3.org/2000/svg" width="64" height="57" viewBox="0 0 64 57">
  <g id="Definitions" transform="translate(8 3)">
    <g id="Layer_2" data-name="Layer 2" transform="translate(4.001 -3)">
      <g id="Definitions-2" data-name="Definitions">
        <path id="Path_86" data-name="Path 86" d="M23.56,6.88s0-3.4-1.09-3.22l-14,6.09A6.92,6.92,0,0,1,3.05,9L15.66,3.56l1.85.81V1.92s-.16-.92-1-.92L2.17,7.22A2,2,0,0,0,1,9.11v21.2s1,3.12,7.25,2.46V15.5a3.85,3.85,0,0,1,2.39-3C12.92,11.43,23.56,6.88,23.56,6.88Z" fill="none" stroke="#232745" stroke-miterlimit="10" stroke-width="2"/>
        <path id="Path_87" data-name="Path 87" d="M33,33.41V11.48A.89.89,0,0,0,31.91,11L17.64,17.22a6.9,6.9,0,0,1-5.09-.84l12.6-5.5,1.87.88V9.23c-.37-1.16-1.12-.84-1.12-.84S12.43,14.1,11.44,14.67a1.94,1.94,0,0,0-1,1.61v21s-.08,1.67,3,2.59a7.34,7.34,0,0,0,4.9.07s13.45-5.76,14.06-6.05S33,33.41,33,33.41Z" fill="none" stroke="#232745" stroke-miterlimit="10" stroke-width="2"/>
      </g>
    </g>
    <text id="Definitions-3" data-name="Definitions" transform="translate(24 50)" fill="#232845" font-size="14" font-family="SegoeUI, Segoe UI" letter-spacing="-0.024em"><tspan x="-31.532" y="0">Definitions</tspan></text>
  </g>
</svg>
