<svg xmlns="http://www.w3.org/2000/svg" width="74" height="91" viewBox="0 0 74 91">
  <g id="Group_390" data-name="Group 390" transform="translate(-72 -402)">
    <g id="Layer_2" data-name="Layer 2" transform="translate(80.779 402)">
      <g id="Driver">
        <path id="Path_1259" data-name="Path 1259" d="M57.34,32.82,39.25,25.38l2.68-6.51a1.91,1.91,0,0,0-.69-2.35,1.84,1.84,0,0,0-2.67.86L32.29,32.65a1.33,1.33,0,0,0,1.23,1.83h0a3.19,3.19,0,0,0,2.73-1.83L38,28.42l18.1,7.45a1.64,1.64,0,0,0,2.15-.9h0a1.66,1.66,0,0,0-.91-2.15Z"/>
        <path id="Path_1260" data-name="Path 1260" d="M38.8,25.48c-14.67,3.69-25.39.09-25.39.09a2.64,2.64,0,1,1,0-5.28,2.57,2.57,0,0,1,1.07.23h0s9.93,4.08,23.66-.23a2.64,2.64,0,0,1,2.64,2.64c0,1.46-.52,2.55-2,2.55"/>
        <path id="Path_1261" data-name="Path 1261" d="M4.18,11.42h0a2,2,0,0,1,2,2v7.27h-4V13.42a2,2,0,0,1,2-2Z" transform="matrix(0.564, -0.826, 0.826, 0.564, -11.44, 10.45)"/>
        <path id="Path_1262" data-name="Path 1262" d="M49.72,57.56h0L37.57,42.27a4,4,0,0,0-3.12-1.51H21c.93-1.57-2.85-20.84-2.85-20.84C9.89,10.5,6.25,25,6.25,25v9C6.61,47,13,49.31,13,49.31H32.77L42.9,62.76h0a4.29,4.29,0,0,0,4.18,1.75,4.34,4.34,0,0,0,3.52-3.39A4.22,4.22,0,0,0,49.72,57.56Z" fill="#231f20"/>
        <path id="Path_1263" data-name="Path 1263" d="M20,30.48l.71,4.74L11.37,48.29S9.07,46.39,9,45.45Z" fill="#fff"/>
        <circle id="Ellipse_38" data-name="Ellipse 38" cx="7.62" cy="7.62" r="7.62" transform="translate(11.38 0)"/>
        <path id="Path_1264" data-name="Path 1264" d="M4.59,47h3.5v8.2A1.75,1.75,0,0,1,6.34,57h0a1.75,1.75,0,0,1-1.75-1.8Z" transform="matrix(0.76, 0.65, -0.65, 0.76, 35.28, 8.34)" fill="#231f20"/>
      </g>
    </g>
    <text id="Driver-2" data-name="Driver" transform="translate(109 488)" font-size="25" font-family="ArialRoundedMTBold, Arial Rounded MT" letter-spacing="-0.02em"><tspan x="-36.543" y="0">Driver</tspan></text>
  </g>
</svg>
