<svg xmlns="http://www.w3.org/2000/svg" width="40.985" height="54.501" viewBox="0 0 40.985 54.501">
  <g id="Home" transform="translate(-4 1.501)">
    <text id="Home-2" data-name="Home" transform="translate(24 50)" fill="#232845" font-size="14" font-family="ArialRoundedMTBold, Arial Rounded MT" letter-spacing="-0.024em"><tspan x="-19.395" y="0">Home</tspan></text>
    <g id="Layer_2" data-name="Layer 2" transform="translate(4.001 -1.498)">
      <g id="Home_Icon" data-name="Home Icon">
        <path id="Path_1544" data-name="Path 1544" d="M20.45,7.5,34,19.5V33.83c0,1-.37,1.34-1.37,1.34H20.29V31.55h1a8.84,8.84,0,0,0,5.83-1.75,6.54,6.54,0,0,0,2.24-5.28,7.67,7.67,0,0,0-.52-2.84A6.15,6.15,0,0,0,24.71,18a12.46,12.46,0,0,0-3.42-.37H15.41a3.56,3.56,0,0,0-3.76,3.16,3.4,3.4,0,0,0,1.36,3V35.17H8.44c-1,0-1.37-.35-1.37-1.34v-14L20.45,7.5m0-2.27a1.44,1.44,0,0,0-1,.44L5.07,19V33.83a3.07,3.07,0,0,0,3.37,3.34H15V22.53c-1.91-.31-1.86-2.87.4-2.87h5.88a11.11,11.11,0,0,1,2.88.29,4.17,4.17,0,0,1,1.71.92A4.06,4.06,0,0,1,27,22.43a5.56,5.56,0,0,1,.38,2.09,4.6,4.6,0,0,1-1.53,3.75,6.93,6.93,0,0,1-4.54,1.28h-3v7.62H32.58A3.08,3.08,0,0,0,36,33.83V18.61L21.4,5.67a1.42,1.42,0,0,0-.95-.44Z" fill="#232745"/>
        <path id="Path_1545" data-name="Path 1545" d="M40.22,17.71l-5.42-5V1.35A.8.8,0,0,0,33.94.5H32.65a.82.82,0,0,0-.88.85V10L22.21,1.24a2.39,2.39,0,0,0-3.42,0L.78,17.71a.77.77,0,0,0-.28.64.72.72,0,0,0,.79.72A1,1,0,0,0,2,18.72L19.71,2.53a1.23,1.23,0,0,1,.81-.34,1.21,1.21,0,0,1,.77.34L39,18.72a1,1,0,0,0,.72.35.72.72,0,0,0,.76-.72.77.77,0,0,0-.26-.64Z" fill="#232745" stroke="#232745" stroke-miterlimit="10" stroke-width="1"/>
      </g>
    </g>
  </g>
</svg>
