<svg xmlns="http://www.w3.org/2000/svg" width="70" height="57" viewBox="0 0 70 57">
  <g id="Law_Widget" data-name="Law Widget" transform="translate(11 3)">
    <g id="Group_391" data-name="Group 391">
      <g id="Layer_2" data-name="Layer 2" transform="translate(8 -3)">
        <g id="Local_Law" data-name="Local Law" transform="translate(1 1)">
          <path id="Path_81" data-name="Path 81" d="M16.16,1A15.16,15.16,0,0,0,1,16.072v.33c.1,6.482,4.427,10.78,8.51,14.937l6.866,6.5,6.374-5.842c3.584-3.517,8.463-9.251,8.57-15.584v-.337A15.16,15.16,0,0,0,16.16,1Zm8.867,15.578a1,1,0,0,1-1,1H22.352a1,1,0,0,1-1-.9,3.328,3.328,0,0,1-2.271.9h-1.4l.411,11.164a1.348,1.348,0,0,1-1.348,1.348h-1.2A1.348,1.348,0,0,1,14.2,28.746l.411-11.164H13.236a3.328,3.328,0,0,1-2.271-.9,1,1,0,0,1-1,.9H8.3a1,1,0,0,1-1-1V9.719a1,1,0,0,1,1-1H9.968a1,1,0,0,1,1,.9,3.3,3.3,0,0,1,2.271-.9h5.848a3.3,3.3,0,0,1,2.271.9,1,1,0,0,1,1-.9h1.671a1,1,0,0,1,1,1Z" transform="translate(-1 -1)" fill="none" stroke="#232745" stroke-miterlimit="10" stroke-width="2"/>
        </g>
      </g>
      <text id="Law_Widget-2" data-name="Law Widget" transform="translate(24 50)" fill="#232845" font-size="14" font-family="SegoeUI, Segoe UI" letter-spacing="-0.024em"><tspan x="-34.831" y="0">Law Widget</tspan></text>
    </g>
  </g>
</svg>
