<svg xmlns="http://www.w3.org/2000/svg" width="42" height="53" viewBox="0 0 42 53">
  <g id="News" transform="translate(2 -1)">
    <text id="News-2" data-name="News" transform="translate(19 50)" fill="#232845" font-size="14" font-family="SegoeUI, Segoe UI" letter-spacing="-0.024em"><tspan x="-16.422" y="0">News</tspan></text>
    <g id="Layer_2" data-name="Layer 2" transform="translate(-2 1)">
      <g id="News-3" data-name="News">
        <path id="Path_242" data-name="Path 242" d="M6.19,34.14h30L34.5,32.78a2.52,2.52,0,0,1-.36-1.36V2.23A1.24,1.24,0,0,0,32.9,1H2.23A1.23,1.23,0,0,0,1,2.23V28.94a5.19,5.19,0,0,0,5.19,5.2Z" fill="none" stroke="#232745" stroke-miterlimit="10" stroke-width="2"/>
        <path id="Path_243" data-name="Path 243" d="M34.14,13.59V30.71a3.43,3.43,0,0,0,3.43,3.43h0A3.44,3.44,0,0,0,41,30.71V14.82a1.23,1.23,0,0,0-1.24-1.23H36.55" fill="none" stroke="#232745" stroke-miterlimit="10" stroke-width="2"/>
        <rect id="Rectangle_104" data-name="Rectangle 104" width="24.77" height="6.12" transform="translate(29.89 11.72) rotate(180)" fill="none" stroke="#232745" stroke-miterlimit="10" stroke-width="2"/>
        <rect id="Rectangle_105" data-name="Rectangle 105" width="9.58" height="9.58" transform="translate(29.89 26.82) rotate(180)" fill="none" stroke="#232745" stroke-miterlimit="10" stroke-width="2"/>
        <line id="Line_10" data-name="Line 10" x1="9.11" transform="translate(5.12 17.57)" fill="none" stroke="#232745" stroke-miterlimit="10" stroke-width="2"/>
        <line id="Line_11" data-name="Line 11" x1="9.11" transform="translate(5.12 21.72)" fill="none" stroke="#232745" stroke-miterlimit="10" stroke-width="2"/>
        <line id="Line_12" data-name="Line 12" x1="9.11" transform="translate(5.12 25.86)" fill="none" stroke="#232745" stroke-miterlimit="10" stroke-width="2"/>
      </g>
    </g>
  </g>
</svg>
